<svg width="60" height="37" viewBox="0 0 60 37" fill="none" xmlns="http://www.w3.org/2000/svg">
<path d="M19.895 19.6244C19.3243 19.6244 18.7937 19.5204 18.303 19.3124C17.8123 19.0991 17.3883 18.8004 17.031 18.4164C16.679 18.0271 16.4203 17.5657 16.255 17.0324L17.623 16.6404C17.799 17.1737 18.0923 17.5791 18.503 17.8564C18.9137 18.1337 19.375 18.2697 19.887 18.2644C20.3563 18.2537 20.7617 18.1471 21.103 17.9444C21.4497 17.7364 21.7163 17.4537 21.903 17.0964C22.095 16.7391 22.191 16.3257 22.191 15.8564C22.191 15.1417 21.9777 14.5631 21.551 14.1204C21.1243 13.6724 20.5643 13.4484 19.871 13.4484C19.679 13.4484 19.4763 13.4751 19.263 13.5284C19.055 13.5817 18.8603 13.6564 18.679 13.7524L17.991 12.6244L22.263 8.76039L22.447 9.24039H16.711V7.88039H23.503V9.24839L19.863 12.7364L19.847 12.2324C20.6097 12.1791 21.2763 12.3044 21.847 12.6084C22.4177 12.9124 22.8603 13.3471 23.175 13.9124C23.495 14.4777 23.655 15.1257 23.655 15.8564C23.655 16.5924 23.4897 17.2431 23.159 17.8084C22.8283 18.3737 22.3803 18.8191 21.815 19.1444C21.2497 19.4644 20.6097 19.6244 19.895 19.6244ZM29.663 19.6404C28.9323 19.6404 28.2683 19.4644 27.671 19.1124C27.079 18.7604 26.607 18.2804 26.255 17.6724C25.9083 17.0591 25.735 16.3684 25.735 15.6004V11.7684C25.735 10.9631 25.9083 10.2511 26.255 9.63239C26.607 9.00839 27.087 8.52306 27.695 8.17639C28.3083 7.82439 29.007 7.64839 29.791 7.64839C30.4257 7.64839 31.015 7.77906 31.559 8.04039C32.1083 8.29639 32.5697 8.66706 32.943 9.15239L31.879 10.0964C31.6497 9.76039 31.351 9.49372 30.983 9.29639C30.615 9.09906 30.2177 9.00039 29.791 9.00039C29.2843 9.00039 28.8337 9.12306 28.439 9.36839C28.0497 9.60839 27.743 9.92839 27.519 10.3284C27.295 10.7231 27.183 11.1497 27.183 11.6084V13.9204L26.871 13.5684C27.207 13.0884 27.6337 12.7044 28.151 12.4164C28.6683 12.1284 29.2283 11.9844 29.831 11.9844C30.5457 11.9844 31.1857 12.1524 31.751 12.4884C32.3217 12.8244 32.7697 13.2804 33.095 13.8564C33.4257 14.4271 33.591 15.0697 33.591 15.7844C33.591 16.4991 33.4123 17.1471 33.055 17.7284C32.6977 18.3097 32.2203 18.7737 31.623 19.1204C31.031 19.4671 30.3777 19.6404 29.663 19.6404ZM29.663 18.2644C30.1217 18.2644 30.5403 18.1551 30.919 17.9364C31.2977 17.7124 31.5963 17.4137 31.815 17.0404C32.039 16.6617 32.151 16.2431 32.151 15.7844C32.151 15.3257 32.039 14.9071 31.815 14.5284C31.5963 14.1497 31.2977 13.8511 30.919 13.6324C30.5457 13.4084 30.1297 13.2964 29.671 13.2964C29.2123 13.2964 28.7937 13.4084 28.415 13.6324C28.0417 13.8511 27.743 14.1497 27.519 14.5284C27.295 14.9071 27.183 15.3257 27.183 15.7844C27.183 16.2377 27.2923 16.6537 27.511 17.0324C27.735 17.4057 28.0337 17.7044 28.407 17.9284C28.7857 18.1524 29.2043 18.2644 29.663 18.2644ZM39.5605 19.6404C38.8138 19.6404 38.1472 19.4724 37.5605 19.1364C36.9792 18.7951 36.5178 18.3337 36.1765 17.7524C35.8405 17.1657 35.6725 16.4991 35.6725 15.7524V11.5284C35.6725 10.7817 35.8405 10.1151 36.1765 9.52839C36.5178 8.94172 36.9792 8.48039 37.5605 8.14439C38.1472 7.80839 38.8138 7.64039 39.5605 7.64039C40.3072 7.64039 40.9738 7.80839 41.5605 8.14439C42.1472 8.48039 42.6085 8.94172 42.9445 9.52839C43.2805 10.1151 43.4485 10.7817 43.4485 11.5284V15.7524C43.4485 16.4991 43.2805 17.1657 42.9445 17.7524C42.6085 18.3337 42.1472 18.7951 41.5605 19.1364C40.9738 19.4724 40.3072 19.6404 39.5605 19.6404ZM39.5605 18.2724C40.0138 18.2724 40.4245 18.1631 40.7925 17.9444C41.1605 17.7257 41.4538 17.4324 41.6725 17.0644C41.8912 16.6911 42.0005 16.2804 42.0005 15.8324V11.4404C42.0005 10.9871 41.8912 10.5764 41.6725 10.2084C41.4538 9.84039 41.1605 9.54706 40.7925 9.32839C40.4245 9.10972 40.0138 9.00039 39.5605 9.00039C39.1125 9.00039 38.7018 9.10972 38.3285 9.32839C37.9605 9.54706 37.6672 9.84039 37.4485 10.2084C37.2298 10.5764 37.1205 10.9871 37.1205 11.4404V15.8324C37.1205 16.2804 37.2298 16.6911 37.4485 17.0644C37.6672 17.4324 37.9605 17.7257 38.3285 17.9444C38.7018 18.1631 39.1125 18.2724 39.5605 18.2724Z" fill="#BBBBBA"/>
<path d="M10.6096 14.887C10.3155 14.9787 10.0274 15.0723 9.74557 15.1678C7.17116 16.0405 5.20283 17.0439 3.91042 18.0797C2.60289 19.1276 2.19155 20.0317 2.19155 20.7236C2.19155 21.4155 2.60289 22.3196 3.91042 23.3675C5.20283 24.4033 7.17116 25.4067 9.74557 26.2794C14.8783 28.0193 22.0717 29.1236 30.0916 29.1236C38.1114 29.1236 45.3048 28.0193 50.4375 26.2794C53.0119 25.4067 54.9803 24.4033 56.2727 23.3675C57.5802 22.3196 57.9916 21.4155 57.9916 20.7236C57.9916 20.0317 57.5802 19.1276 56.2727 18.0797C54.9803 17.0439 53.0119 16.0405 50.4375 15.1678C50.1557 15.0723 49.8676 14.9787 49.5735 14.887C49.8174 14.4053 50.0208 13.9093 50.18 13.4004C55.9699 15.2262 59.5916 17.8315 59.5916 20.7236C59.5916 26.2465 46.384 30.7236 30.0916 30.7236C13.7992 30.7236 0.591553 26.2465 0.591553 20.7236C0.591553 17.8315 4.21325 15.2262 10.0031 13.4004C10.1623 13.9093 10.3657 14.4053 10.6096 14.887Z" fill="#BBBBBA"/>
<path d="M27.0916 35.8486L33.0916 29.8486L27.0916 23.8486" stroke="#BBBBBA" stroke-width="1.6"/>
</svg>
